<svg xmlns="http://www.w3.org/2000/svg" width="128" height="128" preserveAspectRatio="xMidYMid meet" version="1.0" viewBox="0 0 96 96"><metadata>Created by potrace 1.11, written by Peter Selinger 2001-2013</metadata><g fill="#000" stroke="none"><path d="M438 795 c-2 -1 -25 -5 -53 -9 -175 -20 -312 -109 -302 -196 2 -19 16 -57 30 -85 28 -52 33 -75 17 -75 -12 0 -28 -29 -34 -65 -9 -50 16 -90 76 -119 68 -33 121 -41 268 -40 151 1 208 22 297 108 50 49 63 68 63 92 0 16 -6 36 -12 43 -17 17 13 39 65 48 46 7 52 19 52 109 0 64 -1 68 -25 74 -24 6 -94 -13 -115 -30 -7 -6 -19 7 -33 33 -24 45 -69 81 -123 98 -31 10 -163 21 -171 14z" transform="translate(0.000000,96.000000) scale(0.100000,-0.100000)"/></g></svg>